<?xml version="1.0" encoding="UTF-8" standalone="no"?>
<!DOCTYPE svg PUBLIC "-//W3C//DTD SVG 1.1//EN" "http://www.w3.org/Graphics/SVG/1.1/DTD/svg11.dtd">
<svg width="100%" height="100%" viewBox="0 0 1280 960" version="1.1" xmlns="http://www.w3.org/2000/svg" xmlns:xlink="http://www.w3.org/1999/xlink" xml:space="preserve" xmlns:serif="http://www.serif.com/" style="fill-rule:evenodd;clip-rule:evenodd;stroke-linecap:round;stroke-linejoin:round;stroke-miterlimit:1.5;">
    <g transform="matrix(0.969697,0,0,0.96,19.3939,19.2)">
        <rect x="-20" y="-20" width="1320" height="1000" style="fill:rgb(223,223,223);"/>
    </g>
    <g transform="matrix(8.88713,0,0,8.88713,680,500)">
        <g transform="matrix(1,0,0,1,-52.5,-53)">
            <clipPath id="_clip1">
                <rect x="0" y="0" width="105" height="106"/>
            </clipPath>
            <g clip-path="url(#_clip1)">
                <g transform="matrix(1,0,0,1,-12.0435,-386)">
                    <g transform="matrix(0.175379,0,0,0.175379,-12.3663,383.519)">
                        <path d="M338.025,609.183L337.866,609.145L337.85,609.141C337.688,609.702 337.59,610 337.59,610L145,610C140,610 151,598 151,598C155,594 152,589 152,589C162,587 195,574 195,574C210,576 220,553 220,553C227,547 234,520 234,520C243,506 260,453 260,453C264,408 290,362 290,362C287,358 287,353 287,353C286,347 290,323 290,323C283,320 291,300 291,300C291,295 284,279 284,279C266,220 295,177 295,177C301,175 308,165 308,165C320,142.5 337.59,138 337.59,138L349.089,133.802C349.762,133.643 348.038,134.506 348.727,134.394L337.59,138C337.59,138 456.954,79 485.477,163C485.477,163 517,213.708 527,223.854C527,223.854 524.368,251 515,256C515,256 533,282.778 517,293.889C517,293.889 523.855,342.963 475.547,349.798C475.664,349.932 475.778,350.068 475.89,350.206L476,350C476,350 527,439 527,457C527,457 561,505 569,504C569,504 583,452 617,449C617,449 657,451 656,495C656,495 705,476 724,510C724,510 745,544 696,568C696,568 713,603 708,610L571,610C571,610 490,558 480,512C480,512 451.408,458.657 438.496,429L437,429C436.464,429 435.935,428.97 435.413,428.911C443.645,476.313 465.322,601.899 465.322,610L337.59,610L338.025,609.183Z" style="fill:rgb(244,32,39);stroke:rgb(32,9,11);stroke-width:9.03px;"/>
                    </g>
                    <g id="right-eye" transform="matrix(0.175379,0,0,0.175379,-12.3663,383.519)">
                        <path d="M450,197C450,197 426.41,163.391 382,203.195C382,203.195 357.59,225 378.295,251C378.295,251 387,270 419,262C419,262 453,254 457,229C457,229 461.5,212 450,197Z" style="fill:rgb(245,249,251);stroke:rgb(31,9,11);stroke-width:5.7px;"/>
                    </g>
                    <g transform="matrix(0.175379,0,0,0.175379,-12.3663,383.519)">
                        <path d="M363,321C363,321 496.265,275 505.632,263C505.632,263 485.084,308 449.5,319C449.5,319 394,337 363,321Z" style="fill:rgb(32,9,11);stroke:rgb(36,6,9);stroke-width:7.6px;"/>
                    </g>
                    <g transform="matrix(0.175379,0,0,0.182073,-12.3663,380.808)">
                        <path d="M351,405C351,405 320,509 325,536" style="fill:none;stroke:rgb(36,6,9);stroke-width:8.86px;"/>
                    </g>
                    <g id="left-eye" transform="matrix(0.175379,0,0,0.175379,-12.3663,383.519)">
                        <path d="M466,159C466,159 519.944,159 501.963,216C501.963,216 481,207 477,198C477,198 462,183 466,159Z" style="fill:rgb(221,217,222);stroke:rgb(31,9,11);stroke-width:5.7px;"/>
                    </g>
                    <g id="right-corne" transform="matrix(0.175379,9.73551e-18,-9.73551e-18,0.198763,-13.1555,377.754)">
                        <ellipse cx="438.5" cy="224" rx="15.5" ry="15" style="fill:rgb(37,25,30);"/>
                    </g>
                    <g id="left-cornea" transform="matrix(0.1567,-0.0562957,0.0654965,0.18231,-15.8184,409.623)">
                        <ellipse cx="492.5" cy="189.5" rx="10.5" ry="14.5" style="fill:rgb(21,20,23);"/>
                    </g>
                    <g id="left-sclera" transform="matrix(0.204129,-0.0799404,0.0647405,0.165316,-38.3114,424.751)">
                        <ellipse cx="493" cy="181" rx="2" ry="3" style="fill:rgb(191,181,184);"/>
                    </g>
                    <g id="nose" transform="matrix(0.170463,0,0,0.190854,-10.5867,378.453)">
                        <ellipse cx="487.5" cy="231" rx="18.5" ry="17" style="fill:rgb(217,130,165);stroke:rgb(31,9,11);stroke-width:6.45px;"/>
                    </g>
                    <g id="hair" transform="matrix(0.175379,0,0,0.175379,-12.3663,383.519)">
                        <path d="M338,138C338,138 334,106 351,90C351,90 375,60 380,51C380,51 386,26 385,24C385,24 388,28 387,31C387,31 392,20 391,17C391,17 394,52 391,55C391,55 415,32 419,30C419,30 408,58 403,64C403,64 397,80 399,88C399,88 397,106 389,118C389,118 382,130 377,132C377,132 371,136 360,136L338,138Z" style="fill:rgb(224,168,177);stroke:rgb(32,9,11);stroke-width:5.7px;"/>
                    </g>
                    <g id="right-sclera" transform="matrix(0.204609,0,0,0.204609,-25.0813,377.409)">
                        <circle cx="438" cy="212" r="3" style="fill:rgb(224,218,223);"/>
                    </g>
                    <g transform="matrix(0.175379,0,0,0.175379,-12.3663,383.519)">
                        <path d="M249,536C249,536 285,495 318,536C318,536 352,568 329,592C329,592 329.908,610 324.454,610" style="fill:none;stroke:rgb(36,6,9);stroke-width:9.03px;"/>
                    </g>
                </g>
            </g>
        </g>
    </g>
</svg>
